<svg width="120" height="120" viewBox="0 0 120 120" fill="none" xmlns="http://www.w3.org/2000/svg">
  <rect width="120" height="120" rx="16" fill="#FFF5F5"/>
  <circle cx="60" cy="45" r="20" fill="#dc2626"/>
  <rect x="40" y="70" width="40" height="35" rx="8" fill="#dc2626"/>
  <rect x="25" y="75" width="12" height="25" rx="6" fill="#dc2626"/>
  <rect x="83" y="75" width="12" height="25" rx="6" fill="#dc2626"/>
  <circle cx="52" cy="42" r="3" fill="white"/>
  <circle cx="68" cy="42" r="3" fill="white"/>
  <path d="M52 52C52 52 56 56 60 56C64 56 68 52 68 52" stroke="white" stroke-width="2" stroke-linecap="round"/>
  <rect x="42" y="26" width="36" height="8" rx="4" fill="#dc2626"/>
  <rect x="30" y="58" width="60" height="42" rx="6" fill="#991b1b"/>
  <path d="M60 68L55 80L65 73L60 85" stroke="white" stroke-width="2" stroke-linecap="round" stroke-linejoin="round"/>
  <circle cx="60" cy="68" r="8" stroke="white" stroke-width="2" fill="none"/>
  <rect x="45" y="88" width="30" height="6" rx="3" fill="white" opacity="0.3"/>
  <circle cx="25" cy="35" r="6" fill="#dc2626" opacity="0.2"/>
  <circle cx="95" cy="35" r="6" fill="#dc2626" opacity="0.2"/>
  <circle cx="95" cy="90" r="8" fill="#991b1b" opacity="0.3"/>
  <circle cx="25" cy="90" r="5" fill="#dc2626" opacity="0.3"/>
  <rect x="85" y="50" width="25" height="20" rx="4" fill="#991b1b"/>
  <path d="M92 57L100 60L92 63" stroke="white" stroke-width="1.5" stroke-linecap="round"/>
  <rect x="90" y="67" width="15" height="2" rx="1" fill="white" opacity="0.5"/>
</svg>