<svg width="120" height="120" viewBox="0 0 120 120" fill="none" xmlns="http://www.w3.org/2000/svg">
  <rect width="120" height="120" rx="16" fill="#FFF5F5"/>
  <circle cx="60" cy="45" r="20" fill="#dc2626"/>
  <rect x="40" y="70" width="40" height="35" rx="8" fill="#dc2626"/>
  <rect x="25" y="75" width="12" height="25" rx="6" fill="#dc2626"/>
  <rect x="83" y="75" width="12" height="25" rx="6" fill="#dc2626"/>
  <circle cx="52" cy="42" r="3" fill="white"/>
  <circle cx="68" cy="42" r="3" fill="white"/>
  <path d="M52 52C52 52 56 56 60 56C64 56 68 52 68 52" stroke="white" stroke-width="2" stroke-linecap="round"/>
  <rect x="38" y="30" width="12" height="8" rx="2" fill="#dc2626" transform="rotate(-10 44 34)"/>
  <rect x="70" y="30" width="12" height="8" rx="2" fill="#dc2626" transform="rotate(10 76 34)"/>
  <rect x="20" y="55" width="35" height="45" rx="4" fill="#991b1b"/>
  <rect x="65" y="55" width="35" height="45" rx="4" fill="#991b1b"/>
  <rect x="25" y="60" width="25" height="3" rx="1.5" fill="white"/>
  <rect x="25" y="67" width="18" height="3" rx="1.5" fill="white" opacity="0.7"/>
  <rect x="25" y="74" width="22" height="3" rx="1.5" fill="white" opacity="0.5"/>
  <rect x="25" y="81" width="15" height="3" rx="1.5" fill="white" opacity="0.4"/>
  <rect x="25" y="88" width="20" height="3" rx="1.5" fill="white" opacity="0.3"/>
  <rect x="70" y="60" width="25" height="3" rx="1.5" fill="white"/>
  <rect x="70" y="67" width="18" height="3" rx="1.5" fill="white" opacity="0.7"/>
  <rect x="70" y="74" width="22" height="3" rx="1.5" fill="white" opacity="0.5"/>
  <circle cx="35" cy="50" r="4" fill="#dc2626" opacity="0.4"/>
  <circle cx="85" cy="50" r="4" fill="#dc2626" opacity="0.4"/>
</svg>