<svg width="120" height="120" viewBox="0 0 120 120" fill="none" xmlns="http://www.w3.org/2000/svg">
  <rect width="120" height="120" rx="16" fill="#FFF5F5"/>
  <circle cx="60" cy="45" r="20" fill="#dc2626"/>
  <rect x="40" y="70" width="40" height="35" rx="8" fill="#dc2626"/>
  <rect x="25" y="75" width="12" height="25" rx="6" fill="#dc2626"/>
  <rect x="83" y="75" width="12" height="25" rx="6" fill="#dc2626"/>
  <circle cx="52" cy="42" r="3" fill="white"/>
  <circle cx="68" cy="42" r="3" fill="white"/>
  <path d="M52 52C52 52 56 56 60 56C64 56 68 52 68 52" stroke="white" stroke-width="2" stroke-linecap="round"/>
  <rect x="35" y="28" width="50" height="30" rx="4" fill="#991b1b"/>
  <rect x="40" y="33" width="40" height="20" rx="2" fill="#1a1a2e"/>
  <rect x="43" y="36" width="15" height="2" rx="1" fill="#4CAF50"/>
  <rect x="43" y="40" width="20" height="2" rx="1" fill="#FFC107"/>
  <rect x="43" y="44" width="12" height="2" rx="1" fill="#2196F3"/>
  <rect x="43" y="48" width="18" height="2" rx="1" fill="#9C27B0"/>
  <rect x="20" y="65" width="25" height="35" rx="4" fill="#991b1b"/>
  <rect x="75" y="65" width="25" height="35" rx="4" fill="#991b1b"/>
  <rect x="25" y="70" width="15" height="3" rx="1.5" fill="white" opacity="0.8"/>
  <rect x="25" y="76" width="12" height="3" rx="1.5" fill="white" opacity="0.6"/>
  <rect x="80" y="70" width="15" height="3" rx="1.5" fill="white" opacity="0.8"/>
  <rect x="80" y="76" width="12" height="3" rx="1.5" fill="white" opacity="0.6"/>
  <circle cx="100" cy="35" r="8" fill="#dc2626" opacity="0.2"/>
  <circle cx="20" cy="95" r="6" fill="#991b1b" opacity="0.3"/>
</svg>