<svg width="120" height="120" viewBox="0 0 120 120" fill="none" xmlns="http://www.w3.org/2000/svg">
  <rect width="120" height="120" rx="16" fill="#FFF5F5"/>
  <circle cx="60" cy="45" r="20" fill="#dc2626"/>
  <rect x="40" y="70" width="40" height="35" rx="8" fill="#dc2626"/>
  <rect x="25" y="75" width="12" height="25" rx="6" fill="#dc2626"/>
  <rect x="83" y="75" width="12" height="25" rx="6" fill="#dc2626"/>
  <circle cx="52" cy="42" r="3" fill="white"/>
  <circle cx="68" cy="42" r="3" fill="white"/>
  <path d="M52 52C52 52 56 56 60 56C64 56 68 52 68 52" stroke="white" stroke-width="2" stroke-linecap="round"/>
  <rect x="35" y="20" width="8" height="15" rx="2" fill="#dc2626" transform="rotate(-30 39 27)"/>
  <rect x="77" y="20" width="8" height="15" rx="2" fill="#dc2626" transform="rotate(30 81 27)"/>
  <circle cx="30" cy="30" r="6" fill="#991b1b" opacity="0.3"/>
  <circle cx="90" cy="30" r="6" fill="#991b1b" opacity="0.3"/>
  <rect x="85" y="60" width="20" height="3" rx="1.5" fill="#dc2626"/>
  <rect x="88" y="66" width="14" height="3" rx="1.5" fill="#dc2626" opacity="0.6"/>
  <rect x="91" y="72" width="8" height="3" rx="1.5" fill="#dc2626" opacity="0.3"/>
</svg>